<?xml version="1.0" encoding="UTF-8"?>
<svg width="16px" height="16px" viewBox="0 0 16 16" version="1.1" xmlns="http://www.w3.org/2000/svg" xmlns:xlink="http://www.w3.org/1999/xlink">
    <!-- Generator: Sketch 51.3 (57544) - http://www.bohemiancoding.com/sketch -->
    <title>aggregation</title>
    <desc>Created with Sketch.</desc>
    <defs></defs>
    <g id="aggregation" stroke="none" stroke-width="1" fill="none" fill-rule="evenodd">
        <path d="M11,6 L10.0001828,6 L10.0001828,5 L6.00091391,5 L6.00091391,5.046 C6.0289088,5.722 7.71360081,6.345 8.23650521,7.248 C8.57744288,7.835 8.45546518,8.625 7.95055749,9.108 C7.14570463,9.809 6.00091391,10.462 6.00091391,11 L10.0001828,11 L10.0001828,10 L11,10 L11,12 L5.0010967,12 C5.0010967,11.207 4.95210565,10.348 5.50900384,9.843 C6.46082983,9.027 7.95355694,8.289 7.27868032,7.633 C6.31985561,6.793 5.04708829,6.165 5.00209651,5.073 L5.0010967,4 L8.00054835,4 L11,4 L11,6 Z" id="Path" fill="#000000" fill-rule="nonzero"></path>
        <path d="M8,15 C11.8659932,15 15,11.8659932 15,8 C15,4.13400675 11.8659932,1 8,1 C4.13400675,1 1,4.13400675 1,8 C1,11.8659932 4.13400675,15 8,15 Z M8,16 C3.581722,16 0,12.418278 0,8 C0,3.581722 3.581722,0 8,0 C12.418278,0 16,3.581722 16,8 C16,12.418278 12.418278,16 8,16 Z" id="Oval-3" fill="#000000" fill-rule="nonzero"></path>
    </g>
</svg>