<?xml version="1.0" encoding="UTF-8"?>
<svg width="16px" height="16px" viewBox="0 0 16 16" version="1.1" xmlns="http://www.w3.org/2000/svg" xmlns:xlink="http://www.w3.org/1999/xlink">
    <!-- Generator: Sketch 51.3 (57544) - http://www.bohemiancoding.com/sketch -->
    <title>arrows</title>
    <desc>Created with Sketch.</desc>
    <defs></defs>
    <g id="arrows" stroke="none" stroke-width="1" fill="none" fill-rule="evenodd">
        <g id="Group" transform="translate(8.000000, 8.000000) rotate(45.000000) translate(-8.000000, -8.000000) translate(3.000000, 3.000000)" fill="#000000" fill-rule="nonzero">
            <path d="M1,7 L1,9 L3,9 L3,10 L0,10 L0,7 L1,7 Z M1,3 L0,3 L0,5.68434189e-14 L3,5.68434189e-14 L3,1 L1,1 L1,3 Z M7,1 L7,5.68434189e-14 L10,5.68434189e-14 L10,3 L9,3 L9,1 L7,1 Z M9,7 L10,7 L10,10 L7,10 L7,9 L9,9 L9,7 Z M4.02010101,4 L6.02010101,4 L6.02010101,6 L4.02010101,6 L4.02010101,4 Z" id="Combined-Shape"></path>
        </g>
    </g>
</svg>