<?xml version="1.0" encoding="UTF-8"?>
<svg width="16px" height="16px" viewBox="0 0 16 16" version="1.1" xmlns="http://www.w3.org/2000/svg" xmlns:xlink="http://www.w3.org/1999/xlink">
    <!-- Generator: Sketch 51.3 (57544) - http://www.bohemiancoding.com/sketch -->
    <title>eye-slash</title>
    <desc>Created with Sketch.</desc>
    <defs></defs>
    <g id="eye-slash" stroke="none" stroke-width="1" fill="none" fill-rule="evenodd">
        <path d="M8,11.5 C10.2893248,11.5 12.3103941,10.0883662 13.1252351,8 C12.3103941,5.91163378 10.2893248,4.5 8,4.5 C5.71067519,4.5 3.68960591,5.91163378 2.87476487,8 C3.68960591,10.0883662 5.71067519,11.5 8,11.5 Z M7.30498458,5.5978778 L5.64701818,3.9399114 C6.38102321,3.65481685 7.17579341,3.5 8,3.5 C10.7768001,3.5 13.2194808,5.25725704 14.1300085,7.83337696 L14.1889013,8 L14.1300085,8.16662304 C13.7766856,9.16626547 13.1926565,10.0426064 12.4479222,10.7408154 L10.4021222,8.69501542 C10.4658501,8.47436763 10.5,8.24117188 10.5,8 C10.5,6.61928813 9.38071187,5.5 8,5.5 C7.75882812,5.5 7.52563237,5.53414987 7.30498458,5.5978778 Z M4.69506925,4.40217603 L11.6630987,11.3702055 C10.6111386,12.0878752 9.34474936,12.5 8,12.5 C5.22319994,12.5 2.78051921,10.742743 1.86999147,8.16662304 L1.81109868,8 L1.86999147,7.83337696 C2.38853093,6.36629388 3.4039823,5.16478657 4.69506925,4.40217603 Z M5.91419827,6.62130505 C5.65243838,7.01652156 5.5,7.49045883 5.5,8 C5.5,9.38071187 6.61928813,10.5 8,10.5 C8.50954117,10.5 8.98347844,10.3475616 9.37869495,10.0858017 L5.91419827,6.62130505 Z" id="Combined-Shape" fill="#000000" fill-rule="nonzero"></path>
    </g>
</svg>