<?xml version="1.0" encoding="UTF-8"?>
<svg width="16px" height="16px" viewBox="0 0 16 16" version="1.1" xmlns="http://www.w3.org/2000/svg" xmlns:xlink="http://www.w3.org/1999/xlink">
    <!-- Generator: Sketch 51.3 (57544) - http://www.bohemiancoding.com/sketch -->
    <title>eye</title>
    <desc>Created with Sketch.</desc>
    <defs></defs>
    <g id="eye" stroke="none" stroke-width="1" fill="none" fill-rule="evenodd">
        <path d="M8,11.5 C10.2893248,11.5 12.3103941,10.0883662 13.1252351,8 C12.3103941,5.91163378 10.2893248,4.5 8,4.5 C5.71067519,4.5 3.68960591,5.91163378 2.87476487,8 C3.68960591,10.0883662 5.71067519,11.5 8,11.5 Z M1.86999147,7.83337696 C2.78051921,5.25725704 5.22319994,3.5 8,3.5 C10.7768001,3.5 13.2194808,5.25725704 14.1300085,7.83337696 L14.1889013,8 L14.1300085,8.16662304 C13.2194808,10.742743 10.7768001,12.5 8,12.5 C5.22319994,12.5 2.78051921,10.742743 1.86999147,8.16662304 L1.81109868,8 L1.86999147,7.83337696 Z M8,10.5 C9.38071187,10.5 10.5,9.38071187 10.5,8 C10.5,6.61928813 9.38071187,5.5 8,5.5 C6.61928813,5.5 5.5,6.61928813 5.5,8 C5.5,9.38071187 6.61928813,10.5 8,10.5 Z" id="Combined-Shape" fill="#000000" fill-rule="nonzero"></path>
    </g>
</svg>