<?xml version="1.0" encoding="UTF-8"?>
<svg width="16px" height="16px" viewBox="0 0 16 16" version="1.1" xmlns="http://www.w3.org/2000/svg" xmlns:xlink="http://www.w3.org/1999/xlink">
    <!-- Generator: Sketch 51.3 (57544) - http://www.bohemiancoding.com/sketch -->
    <title>group</title>
    <desc>Created with Sketch.</desc>
    <defs></defs>
    <g id="group" stroke="none" stroke-width="1" fill="none" fill-rule="evenodd">
        <rect id="Rectangle-5" fill="#000000" fill-rule="nonzero" x="5" y="5" width="6" height="3"></rect>
        <rect id="Rectangle-5-Copy-2" fill="#000000" fill-rule="nonzero" x="7" y="9" width="4" height="1"></rect>
        <rect id="Rectangle-5-Copy-3" fill="#000000" fill-rule="nonzero" x="7" y="11" width="4" height="1"></rect>
        <path d="M8,15 C11.8659932,15 15,11.8659932 15,8 C15,4.13400675 11.8659932,1 8,1 C4.13400675,1 1,4.13400675 1,8 C1,11.8659932 4.13400675,15 8,15 Z M8,16 C3.581722,16 0,12.418278 0,8 C0,3.581722 3.581722,0 8,0 C12.418278,0 16,3.581722 16,8 C16,12.418278 12.418278,16 8,16 Z" id="Oval-3" fill="#000000" fill-rule="nonzero"></path>
    </g>
</svg>