<?xml version="1.0" encoding="UTF-8"?>
<svg width="16px" height="16px" viewBox="0 0 16 16" version="1.1" xmlns="http://www.w3.org/2000/svg" xmlns:xlink="http://www.w3.org/1999/xlink">
    <!-- Generator: Sketch 51.3 (57544) - http://www.bohemiancoding.com/sketch -->
    <title>indeterminate</title>
    <desc>Created with Sketch.</desc>
    <defs></defs>
    <g id="indeterminate" stroke="none" stroke-width="1" fill="none" fill-rule="evenodd">
        <path d="M8,10.5 C9.88650683,10.5 11.605723,9.54260358 12.6106912,8 C11.605723,6.45739642 9.88650683,5.5 8,5.5 C6.11349317,5.5 4.39427698,6.45739642 3.3893088,8 C4.39427698,9.54260358 6.11349317,10.5 8,10.5 Z M2.36989024,7.74963702 C3.52372118,5.75500738 5.65279598,4.5 8,4.5 C10.347204,4.5 12.4762788,5.75500738 13.6301098,7.74963702 L13.7749369,8 L13.6301098,8.25036298 C12.4762788,10.2449926 10.347204,11.5 8,11.5 C5.65279598,11.5 3.52372118,10.2449926 2.36989024,8.25036298 L2.22506308,8 L2.36989024,7.74963702 Z M8,10.5 C9.38071187,10.5 10.5,9.38071187 10.5,8 C10.5,6.61928813 9.38071187,5.5 8,5.5 C6.61928813,5.5 5.5,6.61928813 5.5,8 C5.5,9.38071187 6.61928813,10.5 8,10.5 Z" id="Combined-Shape" fill="#000000" fill-rule="nonzero"></path>
    </g>
</svg>