<?xml version="1.0" encoding="UTF-8"?>
<svg width="16px" height="16px" viewBox="0 0 16 16" version="1.1" xmlns="http://www.w3.org/2000/svg" xmlns:xlink="http://www.w3.org/1999/xlink">
    <!-- Generator: Sketch 51.3 (57544) - http://www.bohemiancoding.com/sketch -->
    <title>pivot</title>
    <desc>Created with Sketch.</desc>
    <defs></defs>
    <g id="pivot" stroke="none" stroke-width="1" fill="none" fill-rule="evenodd">
        <rect id="Rectangle-5" fill="#000000" fill-rule="nonzero" x="5" y="5" width="6" height="3"></rect>
        <path d="M5.5,8.5 L5.5,10.5 L8.5,10.5 L8.5,8.5 L5.5,8.5 Z M4.5,7.5 L9.5,7.5 L9.5,11.5 L4.5,11.5 L4.5,7.5 Z" id="Rectangle-5-Copy" fill="#000000" fill-rule="nonzero" transform="translate(7.000000, 9.500000) rotate(90.000000) translate(-7.000000, -9.500000) "></path>
        <path d="M8,15 C11.8659932,15 15,11.8659932 15,8 C15,4.13400675 11.8659932,1 8,1 C4.13400675,1 1,4.13400675 1,8 C1,11.8659932 4.13400675,15 8,15 Z M8,16 C3.581722,16 0,12.418278 0,8 C0,3.581722 3.581722,0 8,0 C12.418278,0 16,3.581722 16,8 C16,12.418278 12.418278,16 8,16 Z" id="Oval-3" fill="#000000" fill-rule="nonzero"></path>
    </g>
</svg>